<svg xmlns="http://www.w3.org/2000/svg" version="1.1" xmlns:xlink="http://www.w3.org/1999/xlink" xmlns:svgjs="http://svgjs.dev/svgjs" width="1000" height="1125" viewBox="0 0 1000 1125"><g transform="matrix(1,0,0,1,0.0005762637636053114,0)"><svg viewBox="0 0 320 360" data-background-color="#4b91f1" preserveAspectRatio="xMidYMid meet" height="1125" width="1000" xmlns="http://www.w3.org/2000/svg" xmlns:xlink="http://www.w3.org/1999/xlink"><g id="tight-bounds" transform="matrix(1,0,0,1,0.00018440440442191175,0)"><svg viewBox="0 0 320 360" height="360" width="320"><g><svg></svg></g><g><svg viewBox="0 0 320 360" height="360" width="320"><g><path xmlns="http://www.w3.org/2000/svg" d="M294.684 112.125c-8.775-10.699-25.381-16.201-43-22.006-7.56-2.498-15.357-5.097-22.985-8.235-7.695-3.173-15.256-7.257-22.613-11.172-14.952-8.033-30.41-16.336-46.105-16.336-15.661 0-31.119 8.303-46.071 16.336-7.358 3.949-14.952 8.033-22.648 11.205-7.594 3.139-15.425 5.704-22.985 8.236-17.618 5.839-34.224 11.341-42.999 22.006-11.712 14.277-11.442 35.439-11.172 57.817 0.034 3.375 0.068 6.717 0.067 10.024 0 3.308-0.034 6.649-0.101 10.024-0.27 22.411-0.54 43.54 11.172 57.851 8.775 10.666 25.381 16.167 42.966 22.006 7.56 2.498 15.357 5.097 23.019 8.235 7.695 3.173 15.256 7.223 22.579 11.172 14.986 8.067 30.444 16.37 46.105 16.37 15.695 0 31.153-8.303 46.105-16.336 7.358-3.949 14.918-8.033 22.614-11.172 7.594-3.139 15.357-5.704 22.884-8.202 17.72-5.873 34.326-11.374 43.101-22.039 11.712-14.277 11.442-35.439 11.171-57.817-0.034-3.409-0.101-6.75-0.101-10.058 0-3.308 0.034-6.649 0.101-9.991 0.371-22.479 0.641-43.641-11.104-57.918zM305.552 103.215c-15.728-19.171-45.801-23.727-71.486-34.326-22.985-9.45-46.375-28.588-74.051-28.587-27.676 0-51.066 19.137-74.052 28.587-25.719 10.598-55.758 15.155-71.486 34.326-17.078 20.791-14.311 50.121-14.311 76.785 0 26.63-2.768 55.994 14.277 76.785 15.728 19.171 45.801 23.727 71.487 34.326 22.985 9.484 46.375 28.588 74.051 28.587 27.676 0 51.066-19.103 74.051-28.587 25.719-10.598 55.758-15.155 71.486-34.326 17.045-20.791 14.277-50.121 14.277-76.785 0.068-26.664 2.835-55.994-14.243-76.785zM309.872 189.923c0.304 23.221 0.574 45.059-12.083 60.483-9.518 11.577-26.664 17.281-44.822 23.289-7.56 2.498-15.29 5.063-22.715 8.134-7.493 3.071-14.952 7.088-22.175 10.969-15.458 8.303-31.355 16.842-48.062 16.842-16.707 0-32.604-8.539-47.995-16.808-7.257-3.915-14.75-7.932-22.243-11.003-7.527-3.105-15.256-5.67-22.748-8.134-18.192-6.008-35.338-11.712-44.823-23.289-12.623-15.391-12.353-37.262-12.083-60.415 0.034-3.375 0.101-6.683 0.101-9.991 0-3.308-0.034-6.615-0.067-9.991-0.304-23.154-0.574-45.025 12.083-60.415 9.518-11.577 26.664-17.247 44.822-23.289 7.527-2.498 15.256-5.063 22.749-8.134 7.493-3.105 14.986-7.122 22.242-11.003 15.391-8.269 31.322-16.842 47.995-16.842 16.673 0 32.604 8.539 47.995 16.808 7.257 3.915 14.75 7.932 22.243 11.003 7.493 3.105 15.256 5.637 22.715 8.134 18.158 6.008 35.338 11.712 44.822 23.289 12.657 15.425 12.387 37.262 12.083 60.416-0.034 3.409-0.101 6.717-0.101 9.99 0 3.308 0.034 6.615 0.067 9.957z" fill="#77d4fc" fill-rule="nonzero" stroke="none" stroke-width="1" stroke-linecap="butt" stroke-linejoin="miter" stroke-miterlimit="10" stroke-dasharray="" stroke-dashoffset="0" font-family="none" font-weight="none" font-size="none" text-anchor="none" style="mix-blend-mode: normal" data-fill-palette-color="tertiary"></path></g><g transform="matrix(1,0,0,1,64,136.53512950431838)"><svg viewBox="0 0 192 86.92974099136326" height="86.92974099136326" width="192"><g><svg viewBox="0 0 192 86.92974099136326" height="86.92974099136326" width="192"><g transform="matrix(1,0,0,1,0,44.18978751626953)"><svg viewBox="0 0 192 42.73995347509373" height="42.73995347509373" width="192"><g id="textblocktransform"><svg viewBox="0 0 192 42.73995347509373" height="42.73995347509373" width="192" id="textblock"><g><svg viewBox="0 0 192 24.290815301131605" height="24.290815301131605" width="192"><g transform="matrix(1,0,0,1,0,0)"><svg width="192" viewBox="1.2056831121444702 -19.8779354095459 414.35784912109375 52.42234802246094" height="24.290815301131605" data-palette-color="#001f3f"><path d="M1.381-12.772v0c0.039-0.284 0.116-0.711 0.228-1.281 0.112-0.563 0.183-0.951 0.212-1.162v0c0.011-0.079 0.034-0.369 0.07-0.869 0.036-0.5 0.079-0.935 0.131-1.304v0c0.237-1.704 0.517-2.533 0.84-2.488v0c0.125 0.017 0.235 0.05 0.33 0.096v0c3.354 0.466 8.332 1.117 14.933 1.953 6.602 0.83 11.541 1.472 14.816 1.927v0c0.819 0.114 1.327 0.258 1.525 0.434 0.191 0.175 0.258 0.47 0.2 0.886v0l-0.095 0.684c-0.116 0.832-0.277 2.065-0.484 3.698-0.212 1.626-0.378 2.865-0.496 3.717v0c-0.117 0.839-0.399 1.227-0.848 1.165v0c-0.898-0.125-2.236-0.327-4.015-0.608-1.778-0.281-3.116-0.483-4.014-0.609v0l-3.586 25.813c-0.179 0.466-0.486 0.686-0.919 0.659v0c-0.561-0.078-1.379-0.198-2.454-0.361-1.074-0.169-1.891-0.293-2.452-0.371v0c-0.033-0.005-0.068 0.007-0.106 0.036v0c-0.707-0.098-1.696-0.242-2.969-0.433-1.278-0.198-2.228-0.34-2.848-0.426v0l-1.446-0.2c-0.328-0.012-0.796-0.06-1.404-0.145v0l-0.81-1.294c0.338-2.437 0.925-6.054 1.76-10.851 0.827-4.792 1.41-8.406 1.749-10.842v0c0.016-0.112 0.038-0.298 0.067-0.556 0.029-0.258 0.055-0.47 0.078-0.636 0.022-0.158 0.036-0.358 0.043-0.599 0.008-0.248-0.005-0.452-0.036-0.611-0.038-0.16-0.087-0.322-0.145-0.485-0.058-0.163-0.151-0.29-0.28-0.382-0.122-0.091-0.282-0.15-0.48-0.178v0l-6.884-0.956c-0.431-0.194-0.501-1.335-0.211-3.421zM32.171 19.982v0l0.107-0.914c0.322-2.755 0.827-6.817 1.516-12.186 0.695-5.369 1.203-9.427 1.525-12.175v0l1.17-10.002 28.108 3.287-0.926 7.916c-0.006 0.053-0.021 0.175-0.043 0.368-0.022 0.192-0.038 0.321-0.045 0.387-0.008 0.066-0.028 0.181-0.061 0.346-0.04 0.17-0.083 0.282-0.13 0.337-0.047 0.062-0.115 0.148-0.201 0.258-0.088 0.117-0.18 0.194-0.278 0.229-0.105 0.035-0.239 0.063-0.403 0.084-0.17 0.02-0.351 0.019-0.543-0.003v0l-0.676-0.079c-4.172-0.488-7.962-0.995-11.37-1.521v0c-0.063 0.254-0.163 0.645-0.298 1.173-0.136 0.534-0.248 1.005-0.336 1.411-0.088 0.406-0.154 0.801-0.199 1.185v0l11.491 1.344c0.483 0.057 0.797 0.157 0.942 0.301 0.143 0.151 0.198 0.372 0.164 0.664v0c-0.009 0.079-0.031 0.208-0.065 0.385-0.033 0.171-0.055 0.296-0.064 0.375v0c-0.091 0.775-0.201 1.923-0.333 3.444-0.13 1.515-0.241 2.66-0.331 3.435v0c-0.084 0.319-0.232 0.466-0.444 0.442v0c-0.093-0.011-0.168-0.053-0.227-0.128v0c-5.116-0.337-8.898-0.648-11.348-0.934v0l-0.626-0.074-0.407 3.477c1.43 0.167 3.511 0.343 6.241 0.528 2.73 0.192 4.77 0.367 6.121 0.525v0c1.059 0.124 1.646 0.421 1.758 0.89v0l-0.215 1.838c-0.09 0.768-0.207 1.912-0.351 3.432-0.151 1.519-0.271 2.663-0.361 3.431v0c-0.094 0.808-0.463 1.174-1.105 1.1v0c-0.834-0.098-2.121-0.258-3.86-0.482-1.733-0.216-3.054-0.377-3.961-0.484v0c-2.318-0.271-5.639-0.599-9.963-0.984-4.331-0.386-7.465-0.682-9.401-0.888v0l-0.584-0.853c-0.007-0.457-0.003-0.752 0.012-0.885zM99.975 14.703v0c-0.494 2.398-1.327 4.481-2.499 6.249-1.173 1.774-2.596 3.173-4.27 4.198-1.674 1.032-3.535 1.755-5.581 2.171-2.046 0.415-4.248 0.515-6.605 0.3v0c-2.197-0.201-4.177-0.623-5.939-1.266-1.762-0.643-3.228-1.416-4.397-2.32-1.176-0.904-2.186-1.971-3.032-3.199-0.852-1.223-1.506-2.461-1.96-3.714-0.454-1.253-0.789-2.609-1.003-4.068-0.215-1.459-0.329-2.812-0.342-4.058-0.007-1.246 0.051-2.539 0.174-3.881v0l0.194-2.131c0.381-2.342 1.126-4.409 2.234-6.202 1.108-1.8 2.382-3.213 3.822-4.24 1.447-1.033 3.068-1.855 4.865-2.467 1.796-0.606 3.524-0.983 5.185-1.133 1.661-0.149 3.297-0.15 4.911-0.003v0c2.596 0.237 4.861 0.756 6.796 1.556 1.941 0.807 3.488 1.832 4.639 3.075 1.158 1.244 2.026 2.629 2.603 4.154 0.577 1.526 0.879 3.203 0.906 5.033v0l-0.213 2.321c-0.047 0.518-1.847 0.614-5.398 0.289v0c-0.837-0.076-2-0.2-3.491-0.369-1.491-0.17-2.472-0.276-2.943-0.319v0c-0.08-0.007-0.2-0.008-0.362-0.003-0.161-0.001-0.284-0.006-0.37-0.014v0c-0.418-0.038-0.721-0.24-0.909-0.605-0.181-0.365-0.285-0.803-0.311-1.314-0.028-0.505-0.071-1.014-0.132-1.528-0.061-0.508-0.241-0.949-0.541-1.325-0.3-0.376-0.739-0.59-1.317-0.643-0.584-0.053-1.101-0.004-1.55 0.15-0.456 0.152-0.832 0.423-1.129 0.81-0.297 0.388-0.547 0.783-0.751 1.187-0.211 0.402-0.383 0.936-0.518 1.599-0.134 0.664-0.232 1.224-0.294 1.681-0.069 0.462-0.145 1.075-0.228 1.837-0.09 0.768-0.158 1.328-0.204 1.678v0c-0.018 0.193-0.067 0.546-0.147 1.061-0.081 0.515-0.135 0.932-0.165 1.25v0c-0.368 4.023 0.509 6.189 2.63 6.497v0c0.584 0.053 1.078-0.112 1.481-0.498 0.411-0.391 0.709-0.836 0.895-1.334 0.187-0.505 0.393-1.035 0.618-1.59 0.232-0.561 0.464-0.935 0.695-1.121v0l13.165 1.203c0.534 0.096 0.796 0.444 0.788 1.046zM111.458 29.128l-2.864-0.184c-0.452-0.029-0.979-0.05-1.579-0.062-0.6-0.012-1.061-0.022-1.381-0.029-0.327-0.008-0.696-0.035-1.107-0.081-0.411-0.053-0.72-0.13-0.928-0.23-0.2-0.106-0.411-0.254-0.632-0.442-0.228-0.195-0.385-0.449-0.472-0.762-0.08-0.319-0.142-0.707-0.186-1.164-0.044-0.457-0.046-1.002-0.005-1.634v0c0.225-3.493 0.595-8.255 1.11-14.288 0.522-6.032 0.874-10.462 1.056-13.289v0c0.225-3.493 0.52-5.328 0.886-5.505v0l9.031 0.582c1.597 0.103 2.782 0.273 3.555 0.509 0.773 0.237 1.277 0.55 1.513 0.939 0.235 0.389 0.329 0.963 0.28 1.722v0c-0.015 0.233-0.06 0.674-0.136 1.324-0.075 0.65-0.127 1.194-0.155 1.633v0l-0.072 1.118c-0.033 0.519-0.107 1.292-0.22 2.321-0.113 1.035-0.187 1.812-0.22 2.33v0l-0.031 0.479c0.02 0.102 0.025 0.232 0.015 0.392v0l0.978 0.063c0.273 0.018 0.691 0.055 1.256 0.111 0.565 0.05 0.987 0.084 1.266 0.102v0c0.738 0.048 1.29 0.036 1.655-0.034v0l0.651-10.099c0.052-0.805 0.129-1.381 0.231-1.729 0.102-0.341 0.229-0.55 0.381-0.627 0.152-0.084 0.421-0.113 0.808-0.088v0c0.213 0.014 0.552 0.046 1.016 0.095 0.471 0.044 0.814 0.072 1.026 0.087v0l1.791 0.045c1.22 0.032 2.306 0.078 3.258 0.139v0c4.404 0.284 6.575 0.908 6.513 1.873v0c-0.017 0.259-0.034 0.632-0.052 1.119-0.018 0.487-0.035 0.86-0.052 1.119v0c-0.036 0.566-0.096 1.39-0.179 2.473-0.083 1.084-0.143 1.908-0.18 2.474v0c-0.108 1.683-0.247 4.193-0.414 7.529-0.168 3.336-0.306 5.842-0.414 7.519v0c-0.009 0.146-0.028 0.329-0.056 0.547-0.034 0.218-0.053 0.361-0.057 0.427v0l-0.075 1.158c-0.067 1.038-0.1 1.817-0.1 2.338v0l-0.034 0.529c-0.038 0.064-0.06 0.16-0.069 0.287v0c-0.055 0.858-0.123 2.163-0.202 3.915-0.079 1.745-0.146 3.047-0.201 3.905v0c-0.151 0.578-1.723 0.771-4.717 0.578v0l-10.089-0.65-0.663-1.065 0.103-1.606c0.07-1.084 0.18-2.684 0.329-4.799 0.157-2.121 0.27-3.724 0.34-4.808v0c0.024-0.366-0.007-0.622-0.091-0.768-0.077-0.145-0.253-0.227-0.525-0.244v0l-0.878-0.056c-1.098-0.071-2.103-0.069-3.017 0.006v0c-0.086 1.337-0.233 3.352-0.439 6.044-0.207 2.692-0.354 4.717-0.442 6.074v0c-0.224 0.473-2.262 0.586-6.114 0.338zM142.876 12.767v0c0.081-2.299 0.51-4.448 1.287-6.449 0.777-2.001 1.799-3.729 3.063-5.186 1.265-1.457 2.723-2.7 4.374-3.729 1.65-1.029 3.411-1.782 5.282-2.256 1.878-0.481 3.78-0.688 5.705-0.62v0c2.299 0.081 4.505 0.495 6.621 1.242 2.115 0.748 3.988 1.754 5.618 3.019 1.623 1.264 2.905 2.844 3.846 4.738 0.934 1.887 1.363 3.94 1.285 6.159v0c-0.085 2.412-0.599 4.709-1.543 6.89-0.944 2.182-2.152 3.92-3.625 5.216-1.473 1.296-2.979 1.917-4.518 1.863v0c-1.992-0.07-3.451-1.452-4.377-4.146v0c-0.994 1.133-2.037 1.973-3.131 2.522-1.086 0.542-2.479 0.784-4.178 0.724v0c-1.992-0.07-3.712-0.854-5.16-2.353-1.448-1.505-2.137-3.27-2.066-5.295v0l0.031-0.87c0.059-1.686 0.499-3.285 1.319-4.797 0.827-1.512 2.031-2.75 3.612-3.715 1.582-0.972 3.362-1.423 5.341-1.354v0c2.139 0.075 3.832 0.785 5.078 2.13v0l1.108 1.789c0.253-0.738 0.6-1.877 1.041-3.415v0l2.968 0.104-2.671 12.234c-0.063 1.799 0.618 2.723 2.044 2.773v0c1.548-0.593 2.68-1.664 3.395-3.213 0.721-1.549 1.114-3.246 1.179-5.092v0c0.065-1.859-0.119-3.536-0.554-5.032-0.435-1.489-1.048-2.725-1.841-3.707-0.792-0.988-1.758-1.813-2.895-2.473-1.131-0.667-2.324-1.152-3.581-1.456-1.257-0.304-2.605-0.482-4.044-0.532v0c-1.979-0.069-3.863 0.198-5.652 0.802-1.789 0.604-3.398 1.505-4.827 2.702-1.423 1.198-2.579 2.775-3.468 4.732-0.889 1.957-1.377 4.158-1.463 6.602v0c-0.056 1.586 0.155 3.104 0.631 4.555 0.476 1.451 1.165 2.733 2.067 3.845 0.902 1.112 1.958 2.087 3.169 2.923 1.211 0.836 2.543 1.483 3.994 1.941 1.452 0.451 2.947 0.704 4.487 0.758v0c1.979 0.069 3.901-0.137 5.765-0.618v0l1.035 3.588c-2.228 0.762-5.028 1.084-8.399 0.966v0c-2.345-0.082-4.598-0.618-6.758-1.607-2.153-0.996-4.025-2.306-5.616-3.93-1.584-1.63-2.833-3.575-3.748-5.835-0.908-2.267-1.318-4.646-1.23-7.137zM156.46 14.024v0c-0.049 1.392 0.216 2.496 0.795 3.31 0.578 0.814 1.327 1.237 2.246 1.269v0c1.819 0.064 3.305-0.464 4.459-1.584 1.16-1.12 1.768-2.466 1.822-4.039v0c0.044-1.246-0.299-2.232-1.026-2.958-0.728-0.733-1.602-1.117-2.622-1.152v0c-1.572-0.055-2.846 0.407-3.821 1.386-0.975 0.98-1.593 2.236-1.853 3.768zM199.125 32.544l-15.708-0.214c0.131-4.712 0.291-8.16 0.481-10.344v0c0.093-6.813 0.287-13.717 0.582-20.714v0c-0.048-1.361-0.068-2.364-0.059-3.011v0l0.01-0.73c-0.057-0.714-0.082-1.298-0.076-1.751v0c0.004-0.313 0.155-0.588 0.451-0.824v0c2.657 0.23 6.705 0.381 12.145 0.455v0c1.3 0.018 2.194-0.003 2.681-0.063v0zM201.645 2.792v0c-0.002-0.287 0.012-0.72 0.041-1.3 0.029-0.574 0.043-0.967 0.041-1.181v0c-0.001-0.08-0.019-0.37-0.056-0.869-0.037-0.5-0.057-0.936-0.059-1.31v0c-0.012-1.72 0.145-2.581 0.471-2.583v0c0.127-0.001 0.24 0.015 0.341 0.047v0c3.387-0.024 8.406-0.1 15.058-0.227 6.653-0.134 11.632-0.213 14.939-0.237v0c0.827-0.006 1.35 0.064 1.572 0.209 0.214 0.145 0.323 0.428 0.326 0.848v0l0.005 0.69c0.006 0.84 0.025 2.083 0.056 3.729 0.025 1.64 0.041 2.89 0.047 3.75v0c0.006 0.847-0.218 1.272-0.671 1.275v0c-0.907 0.006-2.26-0.001-4.06-0.021-1.8-0.021-3.154-0.028-4.06-0.021v0l0.185 26.059c-0.11 0.487-0.381 0.749-0.814 0.786v0c-0.567 0.004-1.393 0.003-2.48-0.002-1.087-0.012-1.913-0.016-2.48-0.013v0c-0.033 0-0.067 0.017-0.1 0.051v0c-0.713 0.005-1.713 0.006-3 0.002-1.293-0.011-2.253-0.014-2.88-0.01v0l-1.46 0.011c-0.326 0.036-0.796 0.056-1.41 0.06v0l-0.988-1.163c-0.018-2.46 0.04-6.124 0.172-10.992 0.125-4.861 0.179-8.521 0.161-10.981v0c-0.001-0.113-0.005-0.3-0.014-0.56-0.009-0.26-0.013-0.473-0.014-0.64-0.001-0.16-0.016-0.36-0.044-0.6-0.028-0.246-0.07-0.446-0.125-0.599-0.061-0.153-0.132-0.306-0.213-0.458-0.081-0.153-0.192-0.265-0.332-0.338-0.134-0.072-0.301-0.108-0.501-0.107v0l-6.95 0.05c-0.454-0.13-0.689-1.248-0.704-3.355zM237.095 28.305v0l-0.992-32.365c-0.003-0.113 0.047-0.212 0.151-0.294 0.098-0.083 0.259-0.145 0.484-0.185 0.232-0.04 0.431-0.07 0.598-0.089 0.173-0.025 0.415-0.046 0.728-0.062 0.313-0.016 0.526-0.026 0.64-0.03v0l19.74-0.605c1.619-0.05 3.156 0.157 4.612 0.619 1.455 0.469 2.757 1.173 3.906 2.111 1.149 0.939 2.071 2.168 2.764 3.688 0.693 1.513 1.07 3.235 1.129 5.167v0c0.044 1.426-0.08 2.734-0.37 3.924-0.297 1.196-0.706 2.219-1.226 3.069-0.514 0.849-1.154 1.619-1.92 2.309-0.766 0.684-1.553 1.241-2.36 1.674-0.807 0.432-1.699 0.806-2.677 1.122-0.978 0.31-1.881 0.545-2.71 0.703-0.836 0.152-1.712 0.276-2.63 0.371v0l-4.668 0.143c-0.049 2.543-0.025 5.397 0.073 8.562v0l0.083 2.719c-0.036 0.581-0.303 0.88-0.803 0.895v0l-13.803 0.423c-0.454-1.1-0.704-2.39-0.749-3.869zM250.277 10.883v0l0.812 1.036c0.666-0.02 1.301-0.087 1.905-0.199 0.603-0.119 1.191-0.307 1.764-0.564 0.579-0.265 1.072-0.593 1.48-0.986 0.408-0.393 0.733-0.89 0.975-1.491 0.242-0.594 0.351-1.265 0.329-2.011v0c-0.017-0.566-0.11-1.07-0.277-1.512-0.167-0.442-0.365-0.803-0.593-1.082-0.228-0.273-0.536-0.51-0.923-0.712-0.386-0.195-0.747-0.341-1.084-0.437-0.336-0.096-0.759-0.164-1.266-0.201-0.515-0.044-0.939-0.065-1.273-0.062-0.327 0.003-0.75 0.013-1.269 0.029v0c-0.545 0.277-0.738 3.007-0.58 8.192zM267.321 30.728v0c0.792-3.765 1.685-7.592 2.677-11.482 0.999-3.884 2.248-8.536 3.748-13.958 1.499-5.421 2.523-9.169 3.071-11.244v0c0.174-0.337 0.29-0.537 0.346-0.601v0l4.084-0.234c0.952-0.055 2.358-0.152 4.22-0.292 1.862-0.14 3.268-0.237 4.22-0.292v0l4.073-0.234c0.246-0.014 0.449-0.022 0.61-0.024 0.16-0.003 0.358 0.006 0.592 0.026 0.228 0.02 0.411 0.06 0.548 0.119 0.144 0.059 0.266 0.148 0.366 0.269 0.107 0.127 0.166 0.278 0.176 0.451v0l13.225 34.82c0.019 0.326-0.085 0.556-0.311 0.689-0.233 0.134-0.672 0.219-1.318 0.256v0l-2.236 0.128c-0.646 0.037-1.607 0.102-2.884 0.195-1.277 0.087-2.239 0.148-2.884 0.186v0c-0.193 0.011-0.585 0.047-1.176 0.107-0.591 0.061-1.09 0.096-1.496 0.106-0.4 0.016-0.85 0.019-1.352 0.007-0.495-0.012-0.896-0.079-1.203-0.201-0.307-0.116-0.507-0.285-0.6-0.507v0l-0.092-1.607c-0.206-0.796-0.532-1.525-0.977-2.188-0.445-0.656-0.894-0.97-1.346-0.944v0l-8.347 0.478-0.972 5.224c-0.151 0.396-1.045 0.641-2.683 0.735v0l-1.937 0.111c-0.699 0.04-1.736 0.123-3.11 0.249-1.368 0.132-2.401 0.218-3.101 0.258v0l-0.679 0.038c-0.26 0.015-0.669 0.045-1.226 0.091-0.551 0.052-0.983 0.086-1.297 0.104v0c-0.134-0.126-0.377-0.406-0.729-0.839zM284.783 6.498l-1.454 8.528 0.744 1.109 1.598-0.092c1.298-0.074 2.478-0.222 3.54-0.443 1.069-0.215 1.594-0.492 1.575-0.832v0l-3.936-13.797c-0.286 0.016-0.647 0.588-1.084 1.715-0.429 1.133-0.757 2.404-0.983 3.812zM310.913 24.875v0l-2.686-32.268c-0.009-0.113 0.036-0.214 0.136-0.303 0.093-0.088 0.251-0.158 0.474-0.21 0.23-0.053 0.427-0.092 0.592-0.119 0.171-0.034 0.412-0.068 0.724-0.101 0.312-0.033 0.524-0.054 0.637-0.063v0l19.682-1.638c1.614-0.134 3.16-0.009 4.637 0.377 1.478 0.392 2.815 1.027 4.012 1.904 1.197 0.877 2.181 2.056 2.954 3.537 0.772 1.474 1.238 3.175 1.398 5.102v0c0.118 1.422 0.064 2.734-0.164 3.937-0.234 1.21-0.588 2.253-1.065 3.129-0.469 0.875-1.068 1.678-1.796 2.407-0.729 0.723-1.486 1.321-2.269 1.795-0.783 0.473-1.655 0.894-2.614 1.261-0.96 0.361-1.85 0.642-2.67 0.844-0.827 0.196-1.696 0.365-2.606 0.508v0l-4.654 0.387c0.084 2.542 0.258 5.391 0.52 8.547v0l0.226 2.71c-0.005 0.582-0.257 0.894-0.755 0.936v0l-13.763 1.145c-0.511-1.075-0.828-2.349-0.95-3.824zM323.165 6.787v0l0.865 0.991c0.664-0.055 1.295-0.155 1.892-0.298 0.596-0.15 1.173-0.369 1.732-0.656 0.564-0.294 1.04-0.648 1.426-1.062 0.387-0.414 0.685-0.927 0.896-1.539 0.21-0.606 0.285-1.281 0.223-2.026v0c-0.047-0.565-0.165-1.063-0.356-1.495-0.19-0.432-0.406-0.782-0.649-1.05-0.242-0.261-0.562-0.482-0.958-0.663-0.396-0.174-0.764-0.301-1.106-0.379-0.341-0.079-0.766-0.124-1.275-0.135-0.517-0.017-0.941-0.015-1.274 0.006-0.326 0.02-0.748 0.052-1.266 0.095v0c-0.53 0.305-0.58 3.042-0.15 8.211zM348.166 24.117v0l-0.099-0.914c-0.298-2.757-0.708-6.83-1.23-12.219-0.515-5.389-0.922-9.459-1.219-12.21v0l-1.082-10.011 28.136-3.041 0.857 7.924c0.006 0.053 0.019 0.176 0.04 0.368 0.021 0.192 0.035 0.321 0.041 0.387 0.007 0.066 0.013 0.183 0.018 0.35-0.001 0.174-0.019 0.294-0.052 0.358-0.033 0.071-0.079 0.169-0.139 0.297-0.059 0.134-0.133 0.229-0.22 0.285-0.094 0.057-0.219 0.114-0.374 0.171-0.161 0.058-0.338 0.097-0.53 0.118v0l-0.676 0.073c-4.176 0.451-7.984 0.799-11.424 1.044v0c-0.005 0.262-0.015 0.665-0.031 1.21-0.014 0.551-0.019 1.035-0.014 1.45 0.005 0.415 0.028 0.815 0.069 1.199v0l11.503-1.243c0.484-0.052 0.812-0.024 0.985 0.085 0.173 0.115 0.276 0.319 0.308 0.61v0c0.009 0.08 0.016 0.209 0.022 0.39 0.005 0.174 0.012 0.3 0.021 0.38v0c0.084 0.775 0.231 1.92 0.441 3.432 0.21 1.506 0.356 2.647 0.44 3.423v0c-0.011 0.33-0.123 0.506-0.335 0.529v0c-0.093 0.01-0.176-0.015-0.249-0.074v0c-5.062 0.809-8.82 1.346-11.272 1.611v0l-0.627 0.068 0.376 3.479c1.432-0.155 3.499-0.445 6.203-0.871 2.704-0.42 4.732-0.703 6.084-0.849v0c1.06-0.115 1.698 0.044 1.912 0.477v0l0.199 1.84c0.083 0.769 0.223 1.91 0.42 3.424 0.191 1.515 0.327 2.657 0.411 3.426v0c0.087 0.809-0.19 1.248-0.834 1.317v0c-0.835 0.09-2.125 0.22-3.87 0.388-1.738 0.174-3.061 0.311-3.969 0.409v0c-2.32 0.251-5.631 0.669-9.933 1.255-4.309 0.586-7.43 0.994-9.363 1.223v0l-0.76-0.702c-0.108-0.444-0.17-0.733-0.184-0.866zM415.414 16.849v0c-0.303 0.397-1.019 0.704-2.147 0.922-1.121 0.217-2.514 0.386-4.179 0.507-1.672 0.122-2.564 0.191-2.677 0.206v0c-1.09 0.146-1.878 0.237-2.364 0.276v0l-2.409 0.321c-0.372-0.065-0.74-0.554-1.103-1.467-0.37-0.906-0.788-2.222-1.254-3.949-0.466-1.727-0.716-2.645-0.751-2.754v0c-0.272-1.585-0.667-2.601-1.184-3.051-0.523-0.441-1.376-0.583-2.559-0.425v0l-1.061 0.142 1.57 11.756c-0.007 0.196-0.154 0.38-0.441 0.553-0.294 0.167-0.722 0.308-1.285 0.424-0.562 0.122-1.064 0.216-1.506 0.281-0.442 0.066-1.024 0.14-1.746 0.223-0.73 0.077-1.174 0.126-1.332 0.148v0l-3.469 0.463c-1.963 0.262-3.441 0.476-4.434 0.642v0c-0.238-0.069-0.478-0.151-0.719-0.247v0l-4.8-35.951c-0.061-0.456 0.553-0.77 1.842-0.942v0l21.013-2.805c3.661-0.388 6.552 0.111 8.675 1.495 2.122 1.385 3.382 3.571 3.781 6.558v0c0.52 3.892-1.06 6.998-4.739 9.319v0c0.75 0.129 1.443 0.356 2.078 0.681 0.628 0.32 1.168 0.685 1.62 1.095 0.444 0.405 0.854 0.908 1.23 1.51 0.371 0.61 0.676 1.184 0.916 1.724 0.234 0.541 0.461 1.186 0.683 1.937 0.229 0.756 0.404 1.412 0.525 1.968 0.121 0.556 0.27 1.218 0.447 1.988 0.177 0.77 0.318 1.377 0.424 1.82v0l0.283 2.121c0.087 0.251 0.284 0.594 0.592 1.031 0.313 0.429 0.517 0.751 0.613 0.967v0c0.043 0.324-0.001 0.495-0.133 0.513zM391.686-6.578v0c0.129 0.965 0.231 1.681 0.307 2.149 0.082 0.46 0.252 1.056 0.511 1.788 0.267 0.738 0.58 1.244 0.939 1.519v0c0.674-0.09 1.302-0.248 1.884-0.474 0.589-0.22 1.143-0.529 1.662-0.928 0.518-0.399 0.901-0.937 1.146-1.616 0.239-0.678 0.3-1.456 0.183-2.334v0c-0.067-0.502-0.212-0.93-0.434-1.284-0.229-0.353-0.527-0.619-0.894-0.799-0.367-0.18-0.725-0.317-1.074-0.411-0.348-0.088-0.764-0.13-1.247-0.126-0.477 0.003-0.855 0.017-1.135 0.04-0.273 0.023-0.601 0.06-0.984 0.111v0l-0.585 0.078c-0.223 0.144-0.348 0.39-0.376 0.736-0.028 0.347 0.004 0.864 0.097 1.551z" opacity="1" transform="matrix(1,0,0,1,0,0)" fill="#001f3f" class="wordmark-text-0" data-fill-palette-color="quaternary" id="text-0"></path></svg></g></svg></g><g transform="matrix(1,0,0,1,71.93247880542809,31.539985507010634)"><svg viewBox="0 0 48.13504238914383 11.199967968083095" height="11.199967968083095" width="48.13504238914383"><g transform="matrix(1,0,0,1,0,0)"><svg width="48.13504238914383" viewBox="2.5999999046325684 -35.29999923706055 155.13999938964844 36.099998474121094" height="11.199967968083095" data-palette-color="#001f3f"><path d="M26.4-16.45L26.4-3.85Q25.15-2.05 23-0.93 20.85 0.2 18.35 0.2L18.35 0.2Q13.1 0.2 10.25-4.35 7.4-8.9 7.4-17.25L7.4-17.25Q7.4-25.6 10.25-30.15 13.1-34.7 18.4-34.7L18.4-34.7Q21.25-34.7 23.58-33.38 25.9-32.05 27.4-29.6L27.4-29.6Q28.9-27.1 29.6-23.25L29.6-23.25 30.3-23.45 29.8-34.7 29.15-34.7 27.95-32.3Q25.1-33.85 22.78-34.58 20.45-35.3 18.25-35.3L18.25-35.3Q13.95-35.3 10.35-32.9 6.75-30.5 4.67-26.35 2.6-22.2 2.6-17.25L2.6-17.25Q2.6-12.25 4.67-8.13 6.75-4 10.38-1.6 14 0.8 18.35 0.8L18.35 0.8Q20.95 0.8 24.4-0.2 27.85-1.2 30.25-3.4L30.25-3.4 30.25-16.45 34.35-16.85 34.35-17.25 22.8-17.25 22.8-16.85 26.4-16.45ZM47.05-21.7Q49.95-21.7 52.2-20.3 54.45-18.9 55.7-16.38 56.95-13.85 56.95-10.6L56.95-10.6Q56.95-7.35 55.7-4.83 54.45-2.3 52.2-0.9 49.95 0.5 47.05 0.5L47.05 0.5Q44.15 0.5 41.9-0.9 39.65-2.3 38.4-4.83 37.15-7.35 37.15-10.6L37.15-10.6Q37.15-13.85 38.4-16.38 39.65-18.9 41.9-20.3 44.15-21.7 47.05-21.7L47.05-21.7ZM40.85-10.6Q40.85-5.6 42.5-2.8 44.15 0 47.05 0L47.05 0Q49.95 0 51.6-2.8 53.25-5.6 53.25-10.6L53.25-10.6Q53.25-15.6 51.6-18.4 49.95-21.2 47.05-21.2L47.05-21.2Q44.15-21.2 42.5-18.4 40.85-15.6 40.85-10.6L40.85-10.6ZM81.1-34.5L93.05-34.5 93.05-34.1 89.45-33.7Q88.25-33.55 87.85-33.1 87.45-32.65 87.45-31.45L87.45-31.45 87.45 0.8 86.95 0.8 64.5-31.05 64.3-31.05 64.3-3.05Q64.3-1.85 64.6-1.38 64.9-0.9 65.8-0.8L65.8-0.8 69.35-0.4 69.35 0 58.4 0 58.4-0.4 62-0.8Q62.9-0.9 63.2-1.38 63.5-1.85 63.5-3.05L63.5-3.05 63.5-32.15 63.3-32.45Q62.6-33.45 61.97-33.77 61.35-34.1 60.15-34.1L60.15-34.1 59.3-34.1 59.3-34.5 66.75-34.5 86.45-6.9 86.65-6.9 86.65-31.45Q86.65-32.65 86.35-33.15 86.05-33.65 85.15-33.7L85.15-33.7 81.1-34.1 81.1-34.5ZM110.24-5.1L110.69-5.7 110.89-5.6 110.69-5.05Q109.69-2.4 107.72-0.95 105.74 0.5 102.99 0.5L102.99 0.5Q100.29 0.5 98.19-0.9 96.09-2.3 94.92-4.8 93.74-7.3 93.74-10.55L93.74-10.55Q93.74-13.8 94.99-16.35 96.24-18.9 98.54-20.3 100.84-21.7 103.79-21.7L103.79-21.7Q107.29-21.7 109.17-19.63 111.04-17.55 111.09-13.6L111.09-13.6 110.79-13.35 97.29-13.35Q97.19-12.05 97.19-11.3L97.19-11.3Q97.19-6.75 99.04-4.38 100.89-2 104.19-2L104.19-2Q105.89-2 107.47-2.78 109.04-3.55 110.24-5.1L110.24-5.1ZM103.24-21.15Q100.89-21.15 99.34-19.2 97.79-17.25 97.34-13.9L97.34-13.9 107.04-14.25Q107.19-14.85 107.19-16.25L107.19-16.25Q107.19-18.95 106.17-20.05 105.14-21.15 103.24-21.15L103.24-21.15ZM135.89-21.2L143.94-21.2 143.94-20.8Q141.74-20.45 140.84-19.78 139.94-19.1 139.39-17.35L139.39-17.35 133.69 0.15 133.14 0.15 127.94-15.1 122.94 0.15 122.39 0.15 115.64-19.1Q115.44-19.75 115.19-20.05 114.94-20.35 114.42-20.5 113.89-20.65 112.64-20.8L112.64-20.8 112.64-21.2 121.59-21.2 121.59-20.8Q120.09-20.7 119.62-20.48 119.14-20.25 119.14-19.8L119.14-19.8Q119.14-19.45 119.44-18.6L119.44-18.6 123.79-5.3 123.99-5.3 127.54-16.2 126.64-18.85Q126.29-19.8 125.77-20.23 125.24-20.65 123.89-20.8L123.89-20.8 123.89-21.2 132.34-21.2 132.34-20.8Q130.84-20.7 130.37-20.48 129.89-20.25 129.89-19.8L129.89-19.8Q129.89-19.45 130.19-18.6L130.19-18.6 134.59-5.3 134.79-5.3 138.64-17.4Q138.94-18.4 138.94-18.95L138.94-18.95Q138.94-19.75 138.29-20.13 137.64-20.5 135.89-20.8L135.89-20.8 135.89-21.2ZM152.39-21.7Q148.89-21.7 146.96-20.15 145.04-18.6 145.04-15.8L145.04-15.8Q145.04-14.05 145.74-12.9 146.44-11.75 147.46-11.08 148.49-10.4 150.19-9.55L150.19-9.55Q152.49-8.45 153.64-7.4 154.79-6.35 154.79-4.3L154.79-4.3Q154.79-2.4 153.69-1.23 152.59-0.05 150.74-0.05L150.74-0.05Q148.69-0.05 147.41-1.73 146.14-3.4 145.64-6.9L145.64-6.9 145.04-6.9 145.29-0.4Q146.34 0 147.84 0.25 149.34 0.5 150.54 0.5L150.54 0.5Q153.84 0.5 155.79-1.28 157.74-3.05 157.74-6.1L157.74-6.1Q157.74-7.95 157.01-9.15 156.29-10.35 155.26-11.03 154.24-11.7 152.49-12.5L152.49-12.5Q150.24-13.55 149.14-14.53 148.04-15.5 148.04-17.4L148.04-17.4Q148.04-19.1 149.04-20.13 150.04-21.15 151.69-21.15L151.69-21.15Q153.49-21.15 154.56-19.8 155.64-18.45 156.34-15.45L156.34-15.45 156.89-15.45 156.89-21Q156.09-21.3 154.84-21.5 153.59-21.7 152.39-21.7L152.39-21.7Z" opacity="1" transform="matrix(1,0,0,1,0,0)" fill="#001f3f" class="slogan-text-1" data-fill-palette-color="quaternary" id="text-1"></path></svg></g></svg></g></svg></g></svg></g><g transform="matrix(1,0,0,1,74.63432665125018,0)"><svg viewBox="0 0 42.73134669749963 42.73995347509373" height="42.73995347509373" width="42.73134669749963"><g><svg xmlns="http://www.w3.org/2000/svg" xmlns:xlink="http://www.w3.org/1999/xlink" version="1.1" x="0" y="0" viewBox="10 9.98388671875 80 80.01611328125" style="enable-background:new 0 0 100 100;" xml:space="preserve" height="42.73995347509373" width="42.73134669749963" class="icon-icon-0" data-fill-palette-color="quaternary" id="icon-0"><path d="M55.649 38.394c3.653 0 6.625-2.972 6.625-6.625s-2.972-6.625-6.625-6.625-6.625 2.972-6.625 6.625S51.996 38.394 55.649 38.394zM55.649 27.144c2.55 0 4.625 2.075 4.625 4.625s-2.075 4.625-4.625 4.625-4.625-2.075-4.625-4.625S53.1 27.144 55.649 27.144z" fill="#001f3f" data-fill-palette-color="quaternary"></path><path d="M60.274 71.221c0-4.034-3.282-7.316-7.317-7.317-4.034 0-7.316 3.282-7.316 7.317s3.282 7.316 7.316 7.316C56.992 78.537 60.274 75.255 60.274 71.221zM47.641 71.221c0-2.932 2.385-5.316 5.316-5.317s5.317 2.385 5.317 5.317-2.386 5.316-5.317 5.316S47.641 74.152 47.641 71.221z" fill="#001f3f" data-fill-palette-color="quaternary"></path><path d="M44.382 84.203c0-3.196-2.601-5.797-5.797-5.797s-5.797 2.601-5.797 5.797S35.389 90 38.585 90 44.382 87.399 44.382 84.203zM34.788 84.203c0-2.094 1.703-3.797 3.797-3.797s3.797 1.703 3.797 3.797S40.679 88 38.585 88 34.788 86.297 34.788 84.203z" fill="#001f3f" data-fill-palette-color="quaternary"></path><path d="M86.247 60.914h-5.972V42.574c0-4.626-3.763-8.389-8.388-8.388s-8.389 3.763-8.389 8.388V50c0 3.522-2.866 6.389-6.389 6.389S50.721 53.522 50.721 50v-1.778c0-4.626-3.763-8.389-8.389-8.389s-8.389 3.763-8.389 8.389v12.244c0 3.522-2.865 6.389-6.387 6.388s-6.389-2.866-6.389-6.388v-11.594h5.413c2.069 0 3.753-1.684 3.753-3.753V24.151c0-1.57-0.971-2.913-2.342-3.472V11c0-0.553-0.447-1-1-1H13.342c-0.553 0-1 0.447-1 1v9.679C10.971 21.238 10 22.582 10 24.151v20.968c0 2.069 1.684 3.753 3.753 3.753h5.414v11.594c0 4.626 3.763 8.389 8.389 8.388 4.625 0 8.388-3.763 8.387-8.388V48.222c0-3.522 2.866-6.389 6.389-6.389s6.389 2.866 6.389 6.389V50c0 4.626 3.763 8.389 8.388 8.389S65.498 54.626 65.498 50v-7.426c0-3.522 2.866-6.389 6.389-6.388s6.389 2.866 6.388 6.388v18.34h-5.971c-2.069 0-3.753 1.684-3.753 3.753v11.182c0 1.622 1.041 2.994 2.484 3.516V89c0 0.553 0.447 1 1 1H86.516c0.553 0 1-0.447 1-1v-9.635C88.959 78.843 90 77.471 90 75.849V64.667C90 62.598 88.316 60.914 86.247 60.914zM25.991 12v8.398H14.342V12H25.991zM12 45.119V24.151c0-0.967 0.786-1.753 1.753-1.753h12.827c0.967 0 1.753 0.786 1.753 1.753v20.968c0 0.967-0.786 1.753-1.753 1.753H13.753C12.786 46.872 12 46.086 12 45.119zM73.035 88v-8.398H85.516V88H73.035zM88 75.849c0 0.967-0.786 1.753-1.753 1.753H72.304c-0.967 0-1.753-0.786-1.753-1.753V64.667c0-0.967 0.786-1.753 1.753-1.753h13.943C87.214 62.914 88 63.7 88 64.667V75.849z" fill="#001f3f" data-fill-palette-color="quaternary"></path><path d="M51.458 18.545c0-0.365-0.199-0.702-0.521-0.878l-2.198-1.201c-1.607-0.88-2.922-2.194-3.802-3.802l-1.202-2.198c-0.35-0.643-1.404-0.643-1.754 0l-1.202 2.198c-0.88 1.607-2.194 2.922-3.8 3.802l-2.199 1.202c-0.321 0.175-0.521 0.512-0.52 0.877s0.199 0.702 0.52 0.877l2.199 1.202c1.606 0.879 2.921 2.193 3.8 3.801l1.202 2.198c0.175 0.321 0.512 0.521 0.877 0.521s0.702-0.199 0.877-0.521L44.938 24.425c0.88-1.607 2.194-2.922 3.8-3.8L50.938 19.423C51.259 19.247 51.458 18.91 51.458 18.545zM47.779 18.87c-1.943 1.063-3.532 2.651-4.595 4.596l-0.326 0.594-0.325-0.594c-1.063-1.944-2.652-3.533-4.595-4.596l-0.594-0.325 0.594-0.325c1.942-1.063 3.532-2.653 4.595-4.597l0.325-0.594 0.326 0.594c1.063 1.943 2.652 3.533 4.595 4.598l0.594 0.324L47.779 18.87z" fill="#001f3f" data-fill-palette-color="quaternary"></path><path d="M10.52 78.414l2.199 1.204c1.607 0.878 2.922 2.192 3.801 3.8l1.202 2.198c0.175 0.321 0.512 0.521 0.877 0.521s0.702-0.199 0.877-0.52l1.204-2.199c0.878-1.607 2.192-2.922 3.8-3.801l2.199-1.203c0.32-0.175 0.52-0.512 0.519-0.877s-0.199-0.702-0.52-0.877l-2.199-1.203c-1.607-0.878-2.922-2.192-3.8-3.801l-1.203-2.198c-0.35-0.641-1.404-0.642-1.754 0.001l-1.203 2.198c-0.878 1.607-2.192 2.922-3.8 3.801l-2.198 1.202C10.199 76.835 10 77.172 10 77.537S10.199 78.239 10.52 78.414zM13.678 77.213c1.944-1.063 3.533-2.652 4.595-4.597l0.326-0.594 0.325 0.594c1.063 1.944 2.652 3.533 4.597 4.596l0.593 0.325-0.593 0.325c-1.944 1.063-3.533 2.652-4.596 4.596l-0.326 0.595-0.325-0.594c-1.063-1.944-2.652-3.533-4.595-4.596l-0.595-0.326L13.678 77.213z" fill="#001f3f" data-fill-palette-color="quaternary"></path><path d="M89.479 19.745l-2.784-1.522c-2.08-1.138-3.78-2.838-4.918-4.918l-1.522-2.784c-0.35-0.643-1.404-0.643-1.754 0l-1.522 2.783c-1.139 2.081-2.84 3.782-4.919 4.919l-2.785 1.522c-0.321 0.175-0.521 0.512-0.52 0.877s0.199 0.702 0.52 0.877l2.785 1.522c2.08 1.139 3.78 2.839 4.919 4.919l1.522 2.785c0.175 0.321 0.512 0.521 0.877 0.52s0.702-0.199 0.877-0.52l1.523-2.785c1.136-2.079 2.837-3.78 4.917-4.919l2.784-1.522C89.801 21.324 90 20.987 90 20.622S89.801 19.92 89.479 19.745zM85.735 21.268c-2.417 1.322-4.393 3.299-5.712 5.713l-0.645 1.18-0.646-1.18c-1.321-2.417-3.297-4.393-5.713-5.713l-1.18-0.646 1.18-0.644c2.415-1.32 4.392-3.296 5.713-5.714l0.646-1.18 0.645 1.18c1.32 2.417 3.296 4.393 5.713 5.713l1.18 0.645L85.735 21.268z" fill="#001f3f" data-fill-palette-color="quaternary"></path></svg></g></svg></g><g></g></svg></g></svg></g></svg></g><defs></defs></svg><rect width="320" height="360" fill="none" stroke="none" visibility="hidden"></rect></g></svg></g></svg>