<svg xmlns="http://www.w3.org/2000/svg" version="1.1" xmlns:xlink="http://www.w3.org/1999/xlink" xmlns:svgjs="http://svgjs.dev/svgjs" width="128" height="128" viewBox="0 0 128 128"><g transform="matrix(0.44782608695652176,0,0,0.44782608695652176,35.33918388075771,12.5)"><svg viewBox="0 0 125 225" data-background-color="#4b91f1" preserveAspectRatio="xMidYMid meet" height="230" width="128" xmlns="http://www.w3.org/2000/svg" xmlns:xlink="http://www.w3.org/1999/xlink"><g id="tight-bounds" transform="matrix(1,0,0,1,-0.00011654822391449216,0)"><svg viewBox="0 0 125 225" height="225" width="125"><g><svg></svg></g><g><svg viewBox="0 0 125 225" height="225" width="125"><g><path transform="translate(-3.41568,46.57862) scale(1.31843,1.31843)" d="M89.9 29.89c-2.6-3.17-7.52-4.8-12.74-6.52-2.24-0.74-4.55-1.51-6.81-2.44-2.28-0.94-4.52-2.15-6.7-3.31-4.43-2.38-9.01-4.84-13.66-4.84-4.64 0-9.22 2.46-13.65 4.84-2.18 1.17-4.43 2.38-6.71 3.32-2.25 0.93-4.57 1.69-6.81 2.44-5.22 1.73-10.14 3.36-12.74 6.52-3.47 4.23-3.39 10.5-3.31 17.13 0.01 1 0.02 1.99 0.02 2.97 0 0.98-0.01 1.97-0.03 2.97-0.08 6.64-0.16 12.9 3.31 17.14 2.6 3.16 7.52 4.79 12.73 6.52 2.24 0.74 4.55 1.51 6.82 2.44 2.28 0.94 4.52 2.14 6.69 3.31 4.44 2.39 9.02 4.85 13.66 4.85 4.65 0 9.23-2.46 13.66-4.84 2.18-1.17 4.42-2.38 6.7-3.31 2.25-0.93 4.55-1.69 6.78-2.43 5.25-1.74 10.17-3.37 12.77-6.53 3.47-4.23 3.39-10.5 3.31-17.13-0.01-1.01-0.03-2-0.03-2.98 0-0.98 0.01-1.97 0.03-2.96 0.11-6.66 0.19-12.93-3.29-17.16zM93.12 27.25c-4.66-5.68-13.57-7.03-21.18-10.17-6.81-2.8-13.74-8.47-21.94-8.47-8.2 0-15.13 5.67-21.94 8.47-7.62 3.14-16.52 4.49-21.18 10.17-5.06 6.16-4.24 14.85-4.24 22.75 0 7.89-0.82 16.59 4.23 22.75 4.66 5.68 13.57 7.03 21.18 10.17 6.81 2.81 13.74 8.47 21.94 8.47 8.2 0 15.13-5.66 21.94-8.47 7.62-3.14 16.52-4.49 21.18-10.17 5.05-6.16 4.23-14.85 4.23-22.75 0.02-7.9 0.84-16.59-4.22-22.75zM94.4 52.94c0.09 6.88 0.17 13.35-3.58 17.92-2.82 3.43-7.9 5.12-13.28 6.9-2.24 0.74-4.53 1.5-6.73 2.41-2.22 0.91-4.43 2.1-6.57 3.25-4.58 2.46-9.29 4.99-14.24 4.99-4.95 0-9.66-2.53-14.22-4.98-2.15-1.16-4.37-2.35-6.59-3.26-2.23-0.92-4.52-1.68-6.74-2.41-5.39-1.78-10.47-3.47-13.28-6.9-3.74-4.56-3.66-11.04-3.58-17.9 0.01-1 0.03-1.98 0.03-2.96 0-0.98-0.01-1.96-0.02-2.96-0.09-6.86-0.17-13.34 3.58-17.9 2.82-3.43 7.9-5.11 13.28-6.9 2.23-0.74 4.52-1.5 6.74-2.41 2.22-0.92 4.44-2.11 6.59-3.26 4.56-2.45 9.28-4.99 14.22-4.99 4.94 0 9.66 2.53 14.22 4.98 2.15 1.16 4.37 2.35 6.59 3.26 2.22 0.92 4.52 1.67 6.73 2.41 5.38 1.78 10.47 3.47 13.28 6.9 3.75 4.57 3.67 11.04 3.58 17.9-0.01 1.01-0.03 1.99-0.03 2.96 0 0.98 0.01 1.96 0.02 2.95z" fill="#77d4fc" fill-rule="nonzero" stroke="none" stroke-width="1" stroke-linecap="butt" stroke-linejoin="miter" stroke-miterlimit="10" stroke-dasharray="" stroke-dashoffset="0" font-family="none" font-weight="none" font-size="none" text-anchor="none" style="mix-blend-mode: normal" data-fill-palette-color="tertiary"></path></g><g transform="matrix(1,0,0,1,48.17785,98.17496529073074)"><svg viewBox="0 0 28.6443 28.65006941853853" height="28.65006941853853" width="28.6443"><g><svg viewBox="0 0 28.6443 28.65006941853853" height="28.65006941853853" width="28.6443"><g><svg viewBox="0 0 28.6443 28.65006941853853" height="28.65006941853853" width="28.6443"><g id="textblocktransform"><svg viewBox="0 0 28.6443 28.65006941853853" height="28.65006941853853" width="28.6443" id="textblock"><g><svg viewBox="0 0 28.6443 28.65006941853853" height="28.65006941853853" width="28.6443"><g><svg viewBox="0 0 28.6443 28.65006941853853" height="28.65006941853853" width="28.6443"><g><svg xmlns="http://www.w3.org/2000/svg" xmlns:xlink="http://www.w3.org/1999/xlink" version="1.1" x="0" y="0" viewBox="10 9.983886725000001 80 80.016113275" style="enable-background:new 0 0 100 100;" xml:space="preserve" height="28.65006941853853" width="28.6443" class="icon-icon-0" data-fill-palette-color="quaternary" id="icon-0"><path d="M55.649 38.394c3.653 0 6.625-2.972 6.625-6.625s-2.972-6.625-6.625-6.625-6.625 2.972-6.625 6.625S51.996 38.394 55.649 38.394zM55.649 27.144c2.55 0 4.625 2.075 4.625 4.625s-2.075 4.625-4.625 4.625-4.625-2.075-4.625-4.625S53.1 27.144 55.649 27.144z" fill="#001f3f" data-fill-palette-color="quaternary"></path><path d="M60.274 71.221c0-4.034-3.282-7.316-7.317-7.317-4.034 0-7.316 3.282-7.316 7.317s3.282 7.316 7.316 7.316C56.992 78.537 60.274 75.255 60.274 71.221zM47.641 71.221c0-2.932 2.385-5.316 5.316-5.317s5.317 2.385 5.317 5.317-2.386 5.316-5.317 5.316S47.641 74.152 47.641 71.221z" fill="#001f3f" data-fill-palette-color="quaternary"></path><path d="M44.382 84.203c0-3.196-2.601-5.797-5.797-5.797s-5.797 2.601-5.797 5.797S35.389 90 38.585 90 44.382 87.399 44.382 84.203zM34.788 84.203c0-2.094 1.703-3.797 3.797-3.797s3.797 1.703 3.797 3.797S40.679 88 38.585 88 34.788 86.297 34.788 84.203z" fill="#001f3f" data-fill-palette-color="quaternary"></path><path d="M86.247 60.914h-5.972V42.574c0-4.626-3.763-8.389-8.388-8.388s-8.389 3.763-8.389 8.388V50c0 3.522-2.866 6.389-6.389 6.389S50.721 53.522 50.721 50v-1.778c0-4.626-3.763-8.389-8.389-8.389s-8.389 3.763-8.389 8.389v12.244c0 3.522-2.865 6.389-6.387 6.388s-6.389-2.866-6.389-6.388v-11.594h5.413c2.069 0 3.753-1.684 3.753-3.753V24.151c0-1.57-0.971-2.913-2.342-3.472V11c0-0.553-0.447-1-1-1H13.342c-0.553 0-1 0.447-1 1v9.679C10.971 21.238 10 22.582 10 24.151v20.968c0 2.069 1.684 3.753 3.753 3.753h5.414v11.594c0 4.626 3.763 8.389 8.389 8.388 4.625 0 8.388-3.763 8.387-8.388V48.222c0-3.522 2.866-6.389 6.389-6.389s6.389 2.866 6.389 6.389V50c0 4.626 3.763 8.389 8.388 8.389S65.498 54.626 65.498 50v-7.426c0-3.522 2.866-6.389 6.389-6.388s6.389 2.866 6.388 6.388v18.34h-5.971c-2.069 0-3.753 1.684-3.753 3.753v11.182c0 1.622 1.041 2.994 2.484 3.516V89c0 0.553 0.447 1 1 1H86.516c0.553 0 1-0.447 1-1v-9.635C88.959 78.843 90 77.471 90 75.849V64.667C90 62.598 88.316 60.914 86.247 60.914zM25.991 12v8.398H14.342V12H25.991zM12 45.119V24.151c0-0.967 0.786-1.753 1.753-1.753h12.827c0.967 0 1.753 0.786 1.753 1.753v20.968c0 0.967-0.786 1.753-1.753 1.753H13.753C12.786 46.872 12 46.086 12 45.119zM73.035 88v-8.398H85.516V88H73.035zM88 75.849c0 0.967-0.786 1.753-1.753 1.753H72.304c-0.967 0-1.753-0.786-1.753-1.753V64.667c0-0.967 0.786-1.753 1.753-1.753h13.943C87.214 62.914 88 63.7 88 64.667V75.849z" fill="#001f3f" data-fill-palette-color="quaternary"></path><path d="M51.458 18.545c0-0.365-0.199-0.702-0.521-0.878l-2.198-1.201c-1.607-0.88-2.922-2.194-3.802-3.802l-1.202-2.198c-0.35-0.643-1.404-0.643-1.754 0l-1.202 2.198c-0.88 1.607-2.194 2.922-3.8 3.802l-2.199 1.202c-0.321 0.175-0.521 0.512-0.52 0.877s0.199 0.702 0.52 0.877l2.199 1.202c1.606 0.879 2.921 2.193 3.8 3.801l1.202 2.198c0.175 0.321 0.512 0.521 0.877 0.521s0.702-0.199 0.877-0.521L44.938 24.425c0.88-1.607 2.194-2.922 3.8-3.8L50.938 19.423C51.259 19.247 51.458 18.91 51.458 18.545zM47.779 18.87c-1.943 1.063-3.532 2.651-4.595 4.596l-0.326 0.594-0.325-0.594c-1.063-1.944-2.652-3.533-4.595-4.596l-0.594-0.325 0.594-0.325c1.942-1.063 3.532-2.653 4.595-4.597l0.325-0.594 0.326 0.594c1.063 1.943 2.652 3.533 4.595 4.598l0.594 0.324L47.779 18.87z" fill="#001f3f" data-fill-palette-color="quaternary"></path><path d="M10.52 78.414l2.199 1.204c1.607 0.878 2.922 2.192 3.801 3.8l1.202 2.198c0.175 0.321 0.512 0.521 0.877 0.521s0.702-0.199 0.877-0.52l1.204-2.199c0.878-1.607 2.192-2.922 3.8-3.801l2.199-1.203c0.32-0.175 0.52-0.512 0.519-0.877s-0.199-0.702-0.52-0.877l-2.199-1.203c-1.607-0.878-2.922-2.192-3.8-3.801l-1.203-2.198c-0.35-0.641-1.404-0.642-1.754 0.001l-1.203 2.198c-0.878 1.607-2.192 2.922-3.8 3.801l-2.198 1.202C10.199 76.835 10 77.172 10 77.537S10.199 78.239 10.52 78.414zM13.678 77.213c1.944-1.063 3.533-2.652 4.595-4.597l0.326-0.594 0.325 0.594c1.063 1.944 2.652 3.533 4.597 4.596l0.593 0.325-0.593 0.325c-1.944 1.063-3.533 2.652-4.596 4.596l-0.326 0.595-0.325-0.594c-1.063-1.944-2.652-3.533-4.595-4.596l-0.595-0.326L13.678 77.213z" fill="#001f3f" data-fill-palette-color="quaternary"></path><path d="M89.479 19.745l-2.784-1.522c-2.08-1.138-3.78-2.838-4.918-4.918l-1.522-2.784c-0.35-0.643-1.404-0.643-1.754 0l-1.522 2.783c-1.139 2.081-2.84 3.782-4.919 4.919l-2.785 1.522c-0.321 0.175-0.521 0.512-0.52 0.877s0.199 0.702 0.52 0.877l2.785 1.522c2.08 1.139 3.78 2.839 4.919 4.919l1.522 2.785c0.175 0.321 0.512 0.521 0.877 0.52s0.702-0.199 0.877-0.52l1.523-2.785c1.136-2.079 2.837-3.78 4.917-4.919l2.784-1.522C89.801 21.324 90 20.987 90 20.622S89.801 19.92 89.479 19.745zM85.735 21.268c-2.417 1.322-4.393 3.299-5.712 5.713l-0.645 1.18-0.646-1.18c-1.321-2.417-3.297-4.393-5.713-5.713l-1.18-0.646 1.18-0.644c2.415-1.32 4.392-3.296 5.713-5.714l0.646-1.18 0.645 1.18c1.32 2.417 3.296 4.393 5.713 5.713l1.18 0.645L85.735 21.268z" fill="#001f3f" data-fill-palette-color="quaternary"></path></svg></g></svg></g></svg></g></svg></g></svg></g><g></g></svg></g></svg></g></svg></g><defs></defs></svg><rect width="125" height="225" fill="none" stroke="none" visibility="hidden"></rect></g></svg></g></svg>